<?xml version="1.0" standalone="no"?>
<!DOCTYPE svg PUBLIC "-//W3C//DTD SVG 20010904//EN"
 "http://www.w3.org/TR/2001/REC-SVG-20010904/DTD/svg10.dtd">
<svg version="1.0" xmlns="http://www.w3.org/2000/svg"
 width="180.000000pt" height="180.000000pt" viewBox="0 0 180.000000 180.000000"
 preserveAspectRatio="xMidYMid meet">
<metadata>
Created by potrace 1.14, written by Peter Selinger 2001-2017
</metadata>
<g transform="translate(0.000000,180.000000) scale(0.100000,-0.100000)"
fill="#000000" stroke="none">
<path d="M176 1785 c-54 -19 -106 -63 -141 -120 l-30 -48 0 -717 0 -717 30
-48 c35 -57 100 -110 153 -125 51 -14 1373 -14 1424 0 53 15 118 68 153 125
l30 48 3 707 2 706 -25 50 c-30 61 -65 96 -130 128 l-49 25 -691 0 c-563 0
-697 -2 -729 -14z"/>
</g>
</svg>
